<?xml version="1.0" encoding="UTF-8"?>
<svg id="Layer_1" data-name="Layer 1" xmlns="http://www.w3.org/2000/svg" viewBox="0 0 24 24">
  <path d="M21.59,5.85H2.41c-.83,0-1.5-.67-1.5-1.5s.67-1.5,1.5-1.5h19.18c.83,0,1.5.67,1.5,1.5s-.67,1.5-1.5,1.5Z" fill="#bf0413"/>
  <path d="M21.59,13.73H2.41c-.83,0-1.5-.67-1.5-1.5s.67-1.5,1.5-1.5h19.18c.83,0,1.5.67,1.5,1.5s-.67,1.5-1.5,1.5Z" fill="#bf0413"/>
  <path d="M21.59,21.61H2.41c-.83,0-1.5-.67-1.5-1.5s.67-1.5,1.5-1.5h19.18c.83,0,1.5.67,1.5,1.5s-.67,1.5-1.5,1.5Z" fill="#bf0413"/>
</svg>