<?xml version="1.0" encoding="UTF-8"?><svg id="Layer_1" xmlns="http://www.w3.org/2000/svg" viewBox="0 0 24 24"><path d="M12.13,23.27C5.85,23.27.73,18.16.73,11.87S5.85.47,12.13.47s11.4,5.11,11.4,11.4-5.11,11.4-11.4,11.4ZM12.13,3.47C7.5,3.47,3.73,7.24,3.73,11.87s3.77,8.4,8.4,8.4,8.4-3.77,8.4-8.4S16.77,3.47,12.13,3.47Z" fill="#bf0413"/><circle cx="9.03" cy="9.79" r="1.37" fill="#bf0413"/><circle cx="14.9" cy="9.79" r="1.37" fill="#bf0413"/><path d="M12.17,17.06c-2.2,0-4.15-1.15-5.19-2.13-.4-.38-.42-1.01-.04-1.41.38-.4,1.01-.42,1.41-.05.39.36,3.86,3.38,7.22.02.39-.39,1.02-.39,1.41,0s.39,1.02,0,1.41c-1.58,1.58-3.26,2.15-4.81,2.15Z" fill="#bf0413"/></svg>