<?xml version="1.0" encoding="UTF-8"?><svg id="Layer_1" xmlns="http://www.w3.org/2000/svg" viewBox="0 0 24 24"><path d="M6.66,18.09c-.72,0-1.35-.52-1.48-1.25L2.93,3.68l-1.25-.22c-.82-.14-1.36-.92-1.22-1.73S1.38.37,2.19.51l2.29.4c.63.11,1.12.6,1.22,1.23l.49,2.89h15.35c.43,0,.85.19,1.13.51.29.33.41.76.35,1.19l-1.21,8.76c-.09.69-.65,1.22-1.34,1.29l-13.68,1.31s-.1,0-.14,0ZM6.72,8.02l1.19,6.95,11.11-1.06.82-5.88H6.72Z" fill="#bf0413"/><path d="M8.94,23.4c-1.41,0-2.56-1.15-2.56-2.56s1.15-2.56,2.56-2.56,2.56,1.15,2.56,2.56-1.15,2.56-2.56,2.56ZM8.94,20.4c-.24,0-.44.2-.44.44s.2.44.44.44.44-.2.44-.44-.2-.44-.44-.44Z" fill="#bf0413"/><path d="M17.91,23.4c-1.41,0-2.56-1.15-2.56-2.56s1.15-2.56,2.56-2.56,2.56,1.15,2.56,2.56-1.15,2.56-2.56,2.56ZM17.91,20.4c-.24,0-.44.2-.44.44s.2.44.44.44.44-.2.44-.44-.2-.44-.44-.44Z" fill="#bf0413"/></svg>