<?xml version="1.0" encoding="UTF-8"?>
<svg id="Layer_1" data-name="Layer 1" xmlns="http://www.w3.org/2000/svg" viewBox="0 0 371.53 162.56">
  <path d="M365.97,88.57l-.07-.19c-4.69-10.16-.6-20.97-2.06-31.42-1.17-6.91-4.65-12.79-9.4-17.59,5.65-9.01,5.04-22.26-1.51-30.46-4-5.56-13.07-10.13-23.46-8.61-13.9,1.66-23.07,9.55-28.99,17.91-1.06-.21-2.12-.43-3.19-.64-1.23-6.39-4.4-12.07-10.96-12.97-6.38-1.12-13.7,2.49-16.64,8.51C179.28,1.13,67.85,10.16,32.97,29.85c-14.88,8.4-23.12,25.68-24.36,48.01-.39,7.08-7.19,16.19-8.23,23.21-2.16,12.65,5.12,24.12,15.97,30.69,4.61,2.95,9.66,5.21,14.65,6.94,24.43,7.68,49.98,13.51,76.06,17.41,6.52,7.24,18.68,8.48,27.16,3.34,70.3,6.83,142.95-.23,206.76-22.74,12.91-4.6,28.79-12.13,30.44-27.33.75-7.16-2.82-14.17-5.46-20.8ZM273.03,16.87c2.71-5.05,9.9-7.68,15.03-4.34,2.26,1.52,3.9,3.6,5.05,5.97,2.06,4.23,2.56,9.39,2.13,14.09-.25,2.61-.64,6.44-2.17,8.86-.4.62-.39-.7-.74-2.56-.61-3.11-1.75-6.18-5.19-7.65-2.63-1.05-5.91-.85-8.44-2.06-3.15-1.26-5.98-3.44-6.68-6.72-.3-2.04.11-3.95.99-5.6ZM27.34,91.98c6.25-12.9,10.96-10.27,21.97-5.04,8.29,3.79,20.92,9.94,29.99,6.63.97-.42,1.89-.96,2.69-1.66,2.12-1.77,3.11-5.17,1.37-7.52-2.89-3.65-8.04-3.74-12.25-2.94-3.07.56-5.98,1.77-9.06,2.24-5.5.98-11.64.36-16.05-3.34-10.33-9.05-6.62-26.89,3.73-34.46,4.65-3.58,10.58-4.92,16.37-4.93,6.83-.18,14.08,2.53,17.69,8.63,0,0,0,0,0,0,3.55,4.95.73,13.5-6.26,11.78-4.36-.53-11.56-7.63-14.31-1.22-.07,6.44,10.58,4.42,14.55,6.24,10.36,2.87,15.61,14.45,13.75,24.55-1.51,12.47-10.75,22.4-22.2,26.87-19.42,8.57-53.23,1.57-41.97-25.84ZM91.57,129.26c-8.53-1.18-17.56-2.82-21.42-8.11,12.96-4.86,23.12-16.09,24.74-29.69,1.66-10.07-2.2-21.88-12.55-26.94,6.57-2.23,8.16-11.38,4.28-16.79-1.73-2.78-3.99-5.01-6.68-6.67,4.95-4.79,13.61-4.34,19.88-1.9,11.46,4.47,20.48,14.16,25.02,26,5.12,14.73,3.52,35.3-.54,48.72-5.2-3.13-11.15-4.77-17.08-5.73,6.89-4.17,11.69-13.64,8.25-21.24-.9-2.64-5.14-9.2-8.97-9.27-1.29-.03-2.6.83-3,2.16-.98,4.23,1.3,8.98.62,13.06-.31,3.07-2.17,6.45-3.56,8.95-1.85,3.25-3.66,7.22.1,8.39-.16-.03-.31-.07-.44-.12,2.91,2.4,9.4,7.68,10.5,13.92.15,1.09-.08,2.47-.7,4.28-5.37,1.84-12.32,1.86-18.47.98ZM101.55,110.3c-.13,0-.23-.02-.35-.03,0,0,0,0,0,0,.12,0,.22.03.35.03ZM101.15,110.27s0,0,0,0c-.19-.02-.35-.06-.51-.11.16.04.33.08.51.11ZM138.92,146.04c-3.7,9.34-16.55,14.71-25.15,7.87-3.9-3.54-4.63-9.11-3.85-14.38.37-2.5,1.13-5.12,2.2-7.67.78-1.76,1.44-3.51,1.67-5.42,1.65-10.06-11.65-15.98-9.17-16.12,4.39-.16,9.67,2.19,13.75,4.06,11.74,5.32,25.28,17.74,20.54,31.67ZM146.9,142.45c-.25-11.49-10.94-21.1-19.53-26.72,8.01-26.72,7.15-61.79-20.97-77.37.33-1.1.86-2.06,1.72-2.76.95-.78,1.95-1.11,3.4-1.2,1.82-.03,3.67.65,5.32,1.41,8.45,3.51,14.23,10.73,19.04,18.27,8.24,13.78,16.88,31.15,11.34,47.34-1.5,4.38-5.64,7.67-5.98,12.48-.11,2.9,2.79,4.6,5.51,3.97,6.92-1.53,12.11-13.2,12.34-19.57,2.65-23.08-33.29-51.62-20.54-66.22,1.48-1.61,3.54-2.65,5.69-2.79,7.48-.89,13.52,2.26,18.25,7.98,16.29,21.69,16.26,62.48,9.98,85.77-3.72,10.84-14.49,17.96-25.57,19.41ZM199.54,142.1c-7.62,1.09-17.01,2.17-24.73,1.16l-.18-.02c-4.72-.26-7.3-2.92-8.49-6.41,4.16-3.55,7.38-8.02,9.16-13.11,7.57-23.18,6.71-67.43-7.93-86.25,1.66-14.45,18.25-12.7,29.17-11.32,2.97.37,6.18,1.11,8.17,3.44,0,0,0,0,0,0,5.99,6.9,3.88,24.51-3.27,29.37-3.15,2.38-6.94-.82-10.33.3-1.62.63-2.47,2.6-2.73,4.76-.88,12.43,9,4.72,12.65,12.61,2.44,5.19,2.33,14.2-.05,19.37-3,6.56-8.88,2.68-12.13,6.84-1.55,2.4-1.61,8.42.96,10.25,1.69,1.02,3.59.91,5.63,1.4,3.15.64,6.68,1.34,9.43,3.03,5.75,3.52,9.8,14.82,5.59,20.52-.42.63-1.01,1.16-1.67,1.61,0,0,0,0,0,0-1.5,1.02-3.44,1.61-5.17,1.82-1.22.19-2.6.41-4.09.62ZM243.46,135.43c-3.49,2.19-7.69,2.87-11.7,3.47-5.56.73-11.18.9-16.78.9,0,0,0,0,0,0,4.93-7.9.64-20.24-6.49-25.53-2.62-2.02-6.76-3.14-11.18-3.96.96-2.23,1.75-4.52,2.37-6.86,4.79-2.32,7.5-8.36,7.38-16.89.12-8.88-2.51-14.97-7.35-17.36-.36-1.73-.76-3.42-1.19-5.07,3.61-.12,6.23-2.29,8.47-5.24,0,0,0,0,0,0,5.43-7.63,6.79-21,2.07-29.75,0,0,0,0,0,0,5.33.01,10.7.67,15.84,2.08,3.19.97,5.21,1.45,7.49,3.09,0,0,0,0,0,0,6.18,6.86,3.27,13.13-2.25,25.15-2.19,4.57-9.65,1.43-13.29,4.52,0,0,0,0,0,0-2.33,2.06-3.47,6.57-1,8.99,3.43,2.58,8.43,1.39,9.33,6.77.8,3.48.87,7.43.5,11.05h0c-.12,1.17-.33,2.43-.59,3.5-1.17,7.41-17.04,3.84-15.21,12.01.75,1.98,2.81,3.29,4.75,4.46,2.56,1.45,5.71,2.79,8.48,3.46,3.07.69,6.18,1.88,9.03,3.28,5.22,2.63,15.86,9.18,12.84,16.11-.24.48-.56.95-.96,1.41-.18.14-.37.28-.56.41ZM249.45,133.11c.07,0,.14-.02.21-.03-.11.01-.17.02-.21.03ZM285.17,126.63c-.14,0-.28,0-.42,0-1.95.02-3.69-.74-5.17-2.27-5.9-6.11-11.96-13.01-16.59-18.89-2.83-3.48-4.48-6.41-5.22-9.22-1.17-4.78.56-7.25,1.71-10.72.58-1.92.68-4.65.69-7.06-.04-.96.06-2.31-.09-3.05-7.19,3.83-24.16,11.72-24.52,20.66.41,8.55,11.35,5.22,16.96,5.57,1.35.07,2.89.18,3.89,1.2,1.31,2.09,2.54,4.03,4.23,6.06,4.29,5.35,9.41,10.23,13.83,15.42,1.63,1.97,2.37,3.29,1.49,3.52-1.4.37-2.84.73-4.26,1.07-7.26,1.75-14.63,3.21-22.04,4.18,1.75-12.24-15.98-20.68-25.6-23.04-1.17-.26-2.58-.76-3.97-1.36.23-1.81.53-3.71.97-5.56,3.55-1.21,7.34-3.28,8.23-7.94.75-3.14,1.02-7.14.81-10.84,2.28-2.78,4.98-5.15,8.01-7.2,3.02-2.25,6.1-3.98,9.47-5.58,2.46-1.25,11.56-6.74,9.26-9.05-.47-.46-1.01-.85-1.6-1.17-2.84-1.48-6.15-1.69-9.3-1.74-3.88-.01-7.77.42-11.61,1,4.8-10.24,8.43-18.4,3.3-26.51,0,0,0,0,0,0,12.34-.46,25.09-1.43,37.11,2.02,3.02,1.13,7.27,2.15,8.19,5.65,1.19.08,2.27.36,3.36.54.68-.79,1.45-1.71,1.93-2.56.22-.44.68-1.31,1.44-2.01.43.96.69,2.03.83,3.09-.02.04-.05.09-.07.13-.49.88-1.18,1.77-1.96,2.69-.49.56-.97,1.22-1.71,1.29,0,0,0,0,0,0,0,0-.01,0-.02,0-1.42-.06-3.1-.66-4.64-.63h0s-.03,0-.05,0c-1.96.01-2.37.54-3.72,1.23-8.52,5.03-20.78,18.78-16.24,28.01.77,1.56.53,2.95.59,4.87-.01,2.62-.11,5.58-.8,7.84-.95,3.06-2.68,5.42-1.68,9.34.78,2.98,2.85,5.93,4.72,8.24,4.22,5.37,10.21,12.28,16.44,18.73.95,1,2.04,1.49,3.33,1.49,5.51.04,12.31-1.59,17.19-3,2.76-.58,3.32-3.09,2-5.31-5.05-9.34-12.05-21.85-19.64-29.07-2.14-2.07-4.43-2.14-5.96-3.14-1.88-1.25-1.53-4.1-.07-5.62,1.25-1.41,3.08-1.21,4.41-2.48,4.52-4.6,11.51-14.24,13.31-20.27.35-2.01-1.44-3.76-2.57-5.51-.77-1.08-.78-1.92-.08-2.89.04-.06.09-.13.13-.19.15-.16.85-.92,1.01-1.1,1.8-2.01,4.27-3.33,6.62-4.54,12.35-3.81,24.35,15.31,37.42,11.83.73-.07,1.51.08,2.06.59,2.82,3.29,1.79,14.18-.05,18.24-.78,1.51-1.7,2.94-3.21,3.29-5.97.83-17.73-6.71-22.74-2.41l-.1.1c-6.49,4.75-13.59,8.45-9.76,11.32,13.17,9.89,32.18-1.26,40.86,20.25,2.35,5.84-13.2,13.51-15.56,14.74-7.74,3.93-15.32,2.86-19.34-5.17-6.3-10.24-12.35-20.2-19.03-28.32-6.6-8.02,11.76-14.66,11.63-16.73-.34-1.76-3.08-1.6-4.78-1.71-1.67-.11-3.52-.41-4.98-1.18-2.53,3.95-6.23,8.81-8.98,11.51-1.02.98-2.13,1.38-3.02,1.71-.72.27-1.04.37-1.31.7-.37.37-.69,1.28-.38,1.68.32.21.84.4,1.44.61,8.86,2.43,20.28,23.96,25,32.49,2.24,3.63.65,8.2-3.6,9.07-2.58.76-11.04,3.08-17.43,3.08ZM349.52,34.78c-2.4,6.14-8.08,10.59-16.9,9.36-5.08-.71-11.32-4.32-13.35-5.34-10.75-5.26-15.33-3.8-22.93,1.18,2.52-12.61,13.84-29.43,31.6-31.42,19.17-2.49,26.04,14.8,21.57,26.22Z" fill="#bc2428"/>
</svg>